# xmcd
#
# Track frame offsets: 
#        150
#        20470
#        39639
#        58299
#        79127
#        102945
#        119855
#        141690
#        159947
#        183601
#        201254
#        220265
#        241295
#        263797
#
# Disc length: 3839 seconds
#
# Revision: 0
# Processed by: cddbd v1.5.2PL0 Copyright (c) Steve Scherf et al.
# Submitted via: ExactAudioCopyFreeDBPlugin 1.0
#
DISCID=d80efd0e
DTITLE=吳秉堅  - 吳秉堅 - Xover Non-stop 信心飛航
DYEAR=2011
DGENRE=Contemporary Christian
TTITLE0=信心飛航
TTITLE1=燃夢之旅
TTITLE2=神! 祢在掌管
TTITLE3=赤道宣言
TTITLE4=祇有祝福
TTITLE5=願
TTITLE6=親愛主
TTITLE7=祂的一生
TTITLE8=唯獨祢能知
TTITLE9=絕地舞曲
TTITLE10=家多一點愛
TTITLE11=天家再見
TTITLE12=雨中晴
TTITLE13=重生讚歌
EXTD=
EXTT0=
EXTT1=
EXTT2=
EXTT3=
EXTT4=
EXTT5=
EXTT6=
EXTT7=
EXTT8=
EXTT9=
EXTT10=
EXTT11=
EXTT12=
EXTT13=
PLAYORDER=
